<svg xmlns="http://www.w3.org/2000/svg" width="420" height="345" fill="none"><path fill="url(#a)" fill-opacity=".12" fill-rule="evenodd" d="M220.073 340.157 0 344.588v-25.461l211.224 13.122 8.849 7.908Z" clip-rule="evenodd" style="mix-blend-mode:multiply"/><path fill="#438ADB" d="M130.666 152.952c30.035 13.772 44.54 17.367 57.815 17.028l1.97-10.138c-7.913-.373-21.538-6.686-47.869-25.983l-11.916 19.093Z"/><path fill="#4F5B71" fill-rule="evenodd" d="M170.36 164.11a2 2 0 0 1 1.854-1.995l35.377-2.589v11.805l-35.425-3.456a2 2 0 0 1-1.806-1.99v-1.775Z" clip-rule="evenodd"/><rect width="6.227" height="2.859" x="205.019" y="168.726" fill="#CACACA" rx="1.429" transform="rotate(107 205.019 168.726)"/><rect width="6.227" height="2.859" x="202.501" y="168.546" fill="#CACACA" rx="1.429" transform="rotate(107 202.501 168.546)"/><rect width="6.227" height="2.859" x="199.983" y="168.366" fill="#CACACA" rx="1.429" transform="rotate(107 199.983 168.366)"/><rect width="6.227" height="2.859" x="197.465" y="168.187" fill="#CACACA" rx="1.429" transform="rotate(107 197.465 168.187)"/><path fill="#606C83" fill-rule="evenodd" d="M206.684 159.287a2 2 0 0 1 1.695-1.977l8.293-1.278v18.162l-8.293-1.278a2 2 0 0 1-1.695-1.977v-11.652Z" clip-rule="evenodd"/><ellipse cx="217.126" cy="165.249" fill="#fff" rx="4.086" ry="10.125"/><path fill="url(#b)" fill-rule="evenodd" d="m420 112-203 43.423v20.28L420 224" clip-rule="evenodd"/><g filter="url(#c)" opacity=".4"><circle cx="297.944" cy="143.773" r=".454" fill="#fff"/></g><g filter="url(#d)"><circle cx="291.588" cy="162.843" r=".454" fill="#fff"/></g><g filter="url(#e)" opacity=".4"><circle cx="314.29" cy="174.647" r=".454" fill="#fff"/></g><g filter="url(#f)"><circle cx="264.346" cy="152.854" r=".454" fill="#fff"/></g><g filter="url(#g)" opacity=".5"><ellipse cx="268.432" cy="175.556" fill="#fff" rx=".908" ry=".454"/></g><g filter="url(#h)"><ellipse cx="335.63" cy="156.486" fill="#fff" rx=".908" ry=".454"/></g><g filter="url(#i)" opacity=".2"><circle cx="333.813" cy="198.712" r=".908" fill="#fff"/></g><g filter="url(#j)"><circle cx="245.73" cy="164.205" r=".908" fill="#fff"/></g><path fill="#2161AA" fill-rule="evenodd" d="M24.45 312.711c-1.183 2.658.756 8.182 4.126 10.607 3.37 2.426 3.24-3.012 12.46 1.163 9.222 4.174.692 14.071.692 14.071l-29.049-12.933s-3.417-6.515-1.33-9.971c2.088-3.456 3.717-7.115 3.717-7.115l9.384 4.178ZM193.156 321.71c0 2.909 4.422 5.1 8.584 5.945 4.162.845 8.974-2.309 15.488-1.816 6.514.493 2.849 12.451 2.849 12.451h-32.556s-5.909-4.562-5.396-8.568c.514-4.006.514-8.012.514-8.012h10.517Z" clip-rule="evenodd"/><path fill="#0E2A49" d="M62.511 167.372c-1.344 9.379-.236 12.484.388 22.236 2.434 38.022-1.348 48.712-10.503 55.673-16.71 12.703-35.481 37.65-39.456 67.778l12.105 1.917c3.178-24.084 44.59-50.436 55.17-58.479 13.192-16.656 32.542-48.792 46.884-66.725l-64.588-22.4Z"/><mask id="k" width="116" height="148" x="12" y="167" maskUnits="userSpaceOnUse" style="mask-type:luminance"><path fill="#fff" d="M62.511 167.372c-1.344 9.379-.236 12.484.388 22.236 2.434 38.022-1.348 48.712-10.503 55.673-16.71 12.703-35.481 37.65-39.456 67.778l12.105 1.917c3.178-24.084 44.59-50.436 55.17-58.479 13.192-16.656 32.542-48.792 46.884-66.725l-64.588-22.4Z"/></mask><g mask="url(#k)"><path fill="#0E2A49" fill-rule="evenodd" d="M96.243 208.011c0 12.198-14.344 43.178-15.757 45.698-1.414 2.519 31.572-40.034 31.572-40.034s-15.815-17.861-15.815-5.664Z" clip-rule="evenodd" opacity=".101"/></g><path fill="url(#l)" d="M165.338 250.545c.983 3.549 2.089 11.47 2.856 18.462 1.613 14.707 8.439 30.981 13.865 54.11h12.82c-.246-28.797-2.937-50.859-2.937-66.671 0-17.45 0-26.081-12.803-34.907-3.272-2.255-31.18-29.579-42.623-34.47-8.296-3.546-15.079.118-20.341-2.987 0 0-38.416-4.849-48.483-6.247-2.897-.403 3.72 13.784 14.607 22.961 10.887 9.177 23.065 14.147 52.924 30.065 14.043 7.486 26.917 16.496 29.569 17.924.167.473.353 1.063.546 1.76Z"/><path fill="#2E7DD7" fill-rule="evenodd" d="m55.944 175.511 81.949 11.358s-8.512-57.962 43.453-82.631c5.53-2.625 10.428-10.112 4.139-18.066-19.749-23.026-28.067-24.695-34.942-23.61-74.369 41.336-94.6 112.949-94.6 112.949Z" clip-rule="evenodd"/><mask id="m" width="134" height="125" x="55" y="62" maskUnits="userSpaceOnUse" style="mask-type:luminance"><path fill="#fff" fill-rule="evenodd" d="m55.944 175.511 81.949 11.358s-8.512-57.962 43.453-82.631c5.53-2.625 10.428-10.112 4.139-18.066-19.749-23.026-28.067-24.695-34.942-23.61-74.369 41.336-94.6 112.949-94.6 112.949Z" clip-rule="evenodd"/></mask><g stroke="#fff" stroke-opacity=".216" stroke-width="3" mask="url(#m)"><path d="M56.768 152.233s23.78 8.57 88.632 17.139M73.299 127.722s6.69 6.971 72.72 25.16M85.364 108.503s49.5 24.925 65.759 25.127M118.647 86.605s34.36 36.602 50.181 36.54M152.244 87.517s34.361 36.602 50.182 36.54"/></g><path fill="url(#n)" d="m188.528 92.098-46.298-1.106 28.825 61.272s5.847 8.554 10.055 12.012c5.907 4.854 9.206 3.87 13.861-.254 6.274-5.558 9.416-15.104 22.372-52.559l-10.471-4.126c-4.615 13.779-12.337 19.321-16.194 28.519-1.624 3.873 1.81 8.274.604 10.646 0 0-5.908-18.319-5.036-32.865.547-9.124 2.282-21.539 2.282-21.539Z"/><mask id="o" width="76" height="78" x="142" y="90" maskUnits="userSpaceOnUse" style="mask-type:luminance"><path fill="#fff" d="m188.528 92.098-46.298-1.106 28.825 61.272s5.847 8.554 10.055 12.012c5.907 4.854 9.206 3.87 13.861-.254 6.274-5.558 9.416-15.104 22.372-52.559l-10.471-4.126c-4.615 13.779-12.337 19.321-16.194 28.519-1.624 3.873 1.81 8.274.604 10.646 0 0-5.908-18.319-5.036-32.865.547-9.124 2.282-21.539 2.282-21.539Z"/></mask><g stroke="#fff" stroke-opacity=".216" stroke-width="3" mask="url(#o)"><path d="M161.329 143.547c1.496-7.286 14.937-25.431 27.721-27.339M154.536 124.034c0-9.711 8.628-32.923 67.642-37.35M165.317 163.797c2.64-5.661 15.694-20.502 25.328-24.584"/><path d="M204.269 170.334c-4.417-4.417-13.898-21.76-14.439-32.21M213.292 148.45c-5.226-3.353-21.282-13.935-21.588-19.838M226.168 122.598c-8.783 5.704-25.774-2.523-27.551-6.731"/></g><path fill="#475569" fill-rule="evenodd" d="m215.123 27.529 11.696 19.725h-5.848l-5.848 19.893-24.819-11.406-11.876 12.314-16.98-13.19 7.009-7.61v-15.69l8.313-11.615 38.353 7.579Z" clip-rule="evenodd"/><path fill="#BF5E65" fill-rule="evenodd" d="m167.574 41.914 10.968 6.356 3.662-6.356s-8.311-6.548-2.636-12.764c5.675-6.216-11.994-3.691-11.994-3.691v16.455Z" clip-rule="evenodd"/><path fill="#2E7DD7" fill-rule="evenodd" d="m187.069 25.943 6.848 13.345 30.023 2.725-3.231-6.377-10.536-1.382 9.693-.46-6.455-10.716-26.342 2.865Z" clip-rule="evenodd"/><path fill="#17457A" fill-rule="evenodd" d="M184.647 2.66c-9.273-1.47-17.981 4.857-19.45 14.13l-.04.25.448.078-1.277 8.066 79.823 12.643L229.427 26.3l-.179-.028-15.307-15.593a17.001 17.001 0 0 0-9.472-4.881l-19.822-3.14Z" clip-rule="evenodd"/><ellipse cx="137.368" cy="77.003" fill="url(#p)" rx="68.185" ry="41.044" transform="rotate(-10 137.368 77.003)"/><path fill="#334155" fill-rule="evenodd" d="M198.458 94.497c.358 1.197 1.974 5.562 2.75 6.204.777.643 4.853 3.967 4.853 3.967l.925 2.246 8.238 3.404 1.629-6.405s-.548-6.423-2.055-10.08c-1.508-3.655-5.613-9.346-5.613-9.346s-.604-.921-.689-.905c-1.709.322-2.019.828-2.353 1.004-.172.09.456 1.024.349 1.057-.156.049-.639-.86-.754-.823-1.064.344-1.957.709-2.094.888-.137.178.591 1.005.389 1.107-.259.13-.42-.893-.76-.857-.341.037-2.027.74-2.176.972-.15.232.515.885.352.946-.337.126-.608-.69-.922-.683-.457.01-2.07.614-2.094 1.18-.024.564 3.941 7.383 3.802 7.94-.139.558-2.131-4.038-3.079-4.26-.948-.222-1.056 1.247-.698 2.444Z" clip-rule="evenodd"/><path fill="#6DA4E3" fill-rule="evenodd" d="M141.208 143.808s3.723-29.75 10.636-41c2.471 3.554.969 14.946 5.244 18.109-7.643 5.356-15.88 22.891-15.88 22.891Z" clip-rule="evenodd" opacity=".3"/><defs><filter id="c" width="6.908" height="6.908" x="294.49" y="140.319" color-interpolation-filters="sRGB" filterUnits="userSpaceOnUse"><feFlood flood-opacity="0" result="BackgroundImageFix"/><feColorMatrix in="SourceAlpha" result="hardAlpha" values="0 0 0 0 0 0 0 0 0 0 0 0 0 0 0 0 0 0 127 0"/><feOffset/><feGaussianBlur stdDeviation="1.5"/><feColorMatrix values="0 0 0 0 1 0 0 0 0 1 0 0 0 0 1 0 0 0 1 0"/><feBlend in2="BackgroundImageFix" result="effect1_dropShadow_101_2261"/><feBlend in="SourceGraphic" in2="effect1_dropShadow_101_2261" result="shape"/></filter><filter id="d" width="6.908" height="6.908" x="288.134" y="159.389" color-interpolation-filters="sRGB" filterUnits="userSpaceOnUse"><feFlood flood-opacity="0" result="BackgroundImageFix"/><feColorMatrix in="SourceAlpha" result="hardAlpha" values="0 0 0 0 0 0 0 0 0 0 0 0 0 0 0 0 0 0 127 0"/><feOffset/><feGaussianBlur stdDeviation="1.5"/><feColorMatrix values="0 0 0 0 1 0 0 0 0 1 0 0 0 0 1 0 0 0 1 0"/><feBlend in2="BackgroundImageFix" result="effect1_dropShadow_101_2261"/><feBlend in="SourceGraphic" in2="effect1_dropShadow_101_2261" result="shape"/></filter><filter id="e" width="6.908" height="6.908" x="310.836" y="171.193" color-interpolation-filters="sRGB" filterUnits="userSpaceOnUse"><feFlood flood-opacity="0" result="BackgroundImageFix"/><feColorMatrix in="SourceAlpha" result="hardAlpha" values="0 0 0 0 0 0 0 0 0 0 0 0 0 0 0 0 0 0 127 0"/><feOffset/><feGaussianBlur stdDeviation="1.5"/><feColorMatrix values="0 0 0 0 1 0 0 0 0 1 0 0 0 0 1 0 0 0 1 0"/><feBlend in2="BackgroundImageFix" result="effect1_dropShadow_101_2261"/><feBlend in="SourceGraphic" in2="effect1_dropShadow_101_2261" result="shape"/></filter><filter id="f" width="6.908" height="6.908" x="260.892" y="149.4" color-interpolation-filters="sRGB" filterUnits="userSpaceOnUse"><feFlood flood-opacity="0" result="BackgroundImageFix"/><feColorMatrix in="SourceAlpha" result="hardAlpha" values="0 0 0 0 0 0 0 0 0 0 0 0 0 0 0 0 0 0 127 0"/><feOffset/><feGaussianBlur stdDeviation="1.5"/><feColorMatrix values="0 0 0 0 1 0 0 0 0 1 0 0 0 0 1 0 0 0 1 0"/><feBlend in2="BackgroundImageFix" result="effect1_dropShadow_101_2261"/><feBlend in="SourceGraphic" in2="effect1_dropShadow_101_2261" result="shape"/></filter><filter id="g" width="7.816" height="6.908" x="264.524" y="172.102" color-interpolation-filters="sRGB" filterUnits="userSpaceOnUse"><feFlood flood-opacity="0" result="BackgroundImageFix"/><feColorMatrix in="SourceAlpha" result="hardAlpha" values="0 0 0 0 0 0 0 0 0 0 0 0 0 0 0 0 0 0 127 0"/><feOffset/><feGaussianBlur stdDeviation="1.5"/><feColorMatrix values="0 0 0 0 1 0 0 0 0 1 0 0 0 0 1 0 0 0 1 0"/><feBlend in2="BackgroundImageFix" result="effect1_dropShadow_101_2261"/><feBlend in="SourceGraphic" in2="effect1_dropShadow_101_2261" result="shape"/></filter><filter id="h" width="7.816" height="6.908" x="331.722" y="153.032" color-interpolation-filters="sRGB" filterUnits="userSpaceOnUse"><feFlood flood-opacity="0" result="BackgroundImageFix"/><feColorMatrix in="SourceAlpha" result="hardAlpha" values="0 0 0 0 0 0 0 0 0 0 0 0 0 0 0 0 0 0 127 0"/><feOffset/><feGaussianBlur stdDeviation="1.5"/><feColorMatrix values="0 0 0 0 1 0 0 0 0 1 0 0 0 0 1 0 0 0 1 0"/><feBlend in2="BackgroundImageFix" result="effect1_dropShadow_101_2261"/><feBlend in="SourceGraphic" in2="effect1_dropShadow_101_2261" result="shape"/></filter><filter id="i" width="7.816" height="7.816" x="329.905" y="194.804" color-interpolation-filters="sRGB" filterUnits="userSpaceOnUse"><feFlood flood-opacity="0" result="BackgroundImageFix"/><feColorMatrix in="SourceAlpha" result="hardAlpha" values="0 0 0 0 0 0 0 0 0 0 0 0 0 0 0 0 0 0 127 0"/><feOffset/><feGaussianBlur stdDeviation="1.5"/><feColorMatrix values="0 0 0 0 1 0 0 0 0 1 0 0 0 0 1 0 0 0 1 0"/><feBlend in2="BackgroundImageFix" result="effect1_dropShadow_101_2261"/><feBlend in="SourceGraphic" in2="effect1_dropShadow_101_2261" result="shape"/></filter><filter id="j" width="7.816" height="7.816" x="241.822" y="160.297" color-interpolation-filters="sRGB" filterUnits="userSpaceOnUse"><feFlood flood-opacity="0" result="BackgroundImageFix"/><feColorMatrix in="SourceAlpha" result="hardAlpha" values="0 0 0 0 0 0 0 0 0 0 0 0 0 0 0 0 0 0 127 0"/><feOffset/><feGaussianBlur stdDeviation="1.5"/><feColorMatrix values="0 0 0 0 1 0 0 0 0 1 0 0 0 0 1 0 0 0 1 0"/><feBlend in2="BackgroundImageFix" result="effect1_dropShadow_101_2261"/><feBlend in="SourceGraphic" in2="effect1_dropShadow_101_2261" result="shape"/></filter><linearGradient id="a" x1="36.075" x2="61.122" y1="339.715" y2="285.018" gradientUnits="userSpaceOnUse"><stop stop-opacity=".01"/><stop offset="1"/></linearGradient><linearGradient id="b" x1="420" x2="217" y1="112" y2="112" gradientUnits="userSpaceOnUse"><stop stop-color="#302C48" stop-opacity=".01"/><stop offset="1" stop-color="#F1FFFF"/></linearGradient><linearGradient id="l" x1="77.759" x2="130.344" y1="215.509" y2="226.562" gradientUnits="userSpaceOnUse"><stop stop-color="#17457A"/><stop offset="1" stop-color="#0E2A49"/></linearGradient><linearGradient id="n" x1="210.344" x2="156.697" y1="126.917" y2="128.475" gradientUnits="userSpaceOnUse"><stop stop-color="#6DA4E3"/><stop offset="1" stop-color="#2161AA"/></linearGradient><radialGradient id="p" cx="0" cy="0" r="1" gradientTransform="matrix(-68.33014 64.4564 -85.32319 -90.451 205.553 6.539)" gradientUnits="userSpaceOnUse"><stop stop-color="#6DA4E3"/><stop offset="1" stop-color="#050E18"/></radialGradient></defs></svg>